<svg xmlns="http://www.w3.org/2000/svg" xmlns:xlink="http://www.w3.org/1999/xlink" contentStyleType="text/css" data-diagram-type="SEQUENCE" height="327px" preserveAspectRatio="none" style="width:817px;height:327px;background:#FFFFFF;" version="1.1" viewBox="0 0 817 327" width="817px" zoomAndPan="magnify"><defs/><g><g><title>User</title><rect fill="#000000" fill-opacity="0.00000" height="165.6641" width="8" x="19.9551" y="81.2969"/><line style="stroke:#181818;stroke-width:0.5;stroke-dasharray:5.0,5.0;" x1="23" x2="23" y1="81.2969" y2="246.9609"/></g><g><title>REST Submit Server</title><rect fill="#000000" fill-opacity="0.00000" height="165.6641" width="8" x="298.5215" y="81.2969"/><line style="stroke:#181818;stroke-width:0.5;stroke-dasharray:5.0,5.0;" x1="302.2788" x2="302.2788" y1="81.2969" y2="246.9609"/></g><g><title>Kubernetes API</title><rect fill="#000000" fill-opacity="0.00000" height="165.6641" width="8" x="613.7646" y="81.2969"/><line style="stroke:#181818;stroke-width:0.5;stroke-dasharray:5.0,5.0;" x1="617.3691" x2="617.3691" y1="81.2969" y2="246.9609"/></g><g><title>Spark Operator</title><rect fill="#000000" fill-opacity="0.00000" height="165.6641" width="8" x="746.5952" y="81.2969"/><line style="stroke:#181818;stroke-width:0.5;stroke-dasharray:5.0,5.0;" x1="749.9297" x2="749.9297" y1="81.2969" y2="246.9609"/></g><g class="participant participant-head" data-participant="User"><text fill="#000000" font-family="sans-serif" font-size="14" lengthAdjust="spacing" textLength="31.9102" x="5" y="77.9951">User</text><ellipse cx="23.9551" cy="13.5" fill="#E2E2F0" rx="8" ry="8" style="stroke:#181818;stroke-width:0.5;"/><path d="M23.9551,21.5 L23.9551,48.5 M10.9551,29.5 L36.9551,29.5 M23.9551,48.5 L10.9551,63.5 M23.9551,48.5 L36.9551,63.5" fill="none" style="stroke:#181818;stroke-width:0.5;"/></g><g class="participant participant-tail" data-participant="User"><text fill="#000000" font-family="sans-serif" font-size="14" lengthAdjust="spacing" textLength="31.9102" x="5" y="258.9561">User</text><ellipse cx="23.9551" cy="270.7578" fill="#E2E2F0" rx="8" ry="8" style="stroke:#181818;stroke-width:0.5;"/><path d="M23.9551,278.7578 L23.9551,305.7578 M10.9551,286.7578 L36.9551,286.7578 M23.9551,305.7578 L10.9551,320.7578 M23.9551,305.7578 L36.9551,320.7578" fill="none" style="stroke:#181818;stroke-width:0.5;"/></g><g class="participant participant-head" data-participant="REST"><rect fill="#E2E2F0" height="30.2969" rx="2.5" ry="2.5" style="stroke:#181818;stroke-width:0.5;" width="154.4854" x="225.2788" y="50"/><text fill="#000000" font-family="sans-serif" font-size="14" lengthAdjust="spacing" textLength="140.4854" x="232.2788" y="69.9951">REST Submit Server</text></g><g class="participant participant-tail" data-participant="REST"><rect fill="#E2E2F0" height="30.2969" rx="2.5" ry="2.5" style="stroke:#181818;stroke-width:0.5;" width="154.4854" x="225.2788" y="245.9609"/><text fill="#000000" font-family="sans-serif" font-size="14" lengthAdjust="spacing" textLength="140.4854" x="232.2788" y="265.9561">REST Submit Server</text></g><g class="participant participant-head" data-participant="K8s"><rect fill="#E2E2F0" height="30.2969" rx="2.5" ry="2.5" style="stroke:#181818;stroke-width:0.5;" width="120.791" x="557.3691" y="50"/><text fill="#000000" font-family="sans-serif" font-size="14" lengthAdjust="spacing" textLength="106.791" x="564.3691" y="69.9951">Kubernetes API</text></g><g class="participant participant-tail" data-participant="K8s"><rect fill="#E2E2F0" height="30.2969" rx="2.5" ry="2.5" style="stroke:#181818;stroke-width:0.5;" width="120.791" x="557.3691" y="245.9609"/><text fill="#000000" font-family="sans-serif" font-size="14" lengthAdjust="spacing" textLength="106.791" x="564.3691" y="265.9561">Kubernetes API</text></g><g class="participant participant-head" data-participant="Operator"><rect fill="#E2E2F0" height="30.2969" rx="2.5" ry="2.5" style="stroke:#181818;stroke-width:0.5;" width="121.3311" x="689.9297" y="50"/><text fill="#000000" font-family="sans-serif" font-size="14" lengthAdjust="spacing" textLength="107.3311" x="696.9297" y="69.9951">Spark Operator</text></g><g class="participant participant-tail" data-participant="Operator"><rect fill="#E2E2F0" height="30.2969" rx="2.5" ry="2.5" style="stroke:#181818;stroke-width:0.5;" width="121.3311" x="689.9297" y="245.9609"/><text fill="#000000" font-family="sans-serif" font-size="14" lengthAdjust="spacing" textLength="107.3311" x="696.9297" y="265.9561">Spark Operator</text></g><g class="message" data-participant-1="User" data-participant-2="REST"><polygon fill="#181818" points="290.5215,108.4297,300.5215,112.4297,290.5215,116.4297,294.5215,112.4297" style="stroke:#181818;stroke-width:1;"/><line style="stroke:#181818;stroke-width:1;" x1="23.9551" x2="296.5215" y1="112.4297" y2="112.4297"/><text fill="#000000" font-family="sans-serif" font-size="13" lengthAdjust="spacing" textLength="254.5664" x="30.9551" y="107.3638">POST /sparkapplications (CRD as JSON)</text></g><g class="message" data-participant-1="REST" data-participant-2="K8s"><polygon fill="#181818" points="605.7646,137.5625,615.7646,141.5625,605.7646,145.5625,609.7646,141.5625" style="stroke:#181818;stroke-width:1;"/><line style="stroke:#181818;stroke-width:1;" x1="302.5215" x2="611.7646" y1="141.5625" y2="141.5625"/><text fill="#000000" font-family="sans-serif" font-size="13" lengthAdjust="spacing" textLength="291.2432" x="309.5215" y="136.4966">CreateNamespacedCustomObject (go-client)</text></g><g class="message" data-participant-1="K8s" data-participant-2="Operator"><polygon fill="#181818" points="628.7646,166.6953,618.7646,170.6953,628.7646,174.6953,624.7646,170.6953" style="stroke:#181818;stroke-width:1;"/><polygon fill="#181818" points="738.5952,166.6953,748.5952,170.6953,738.5952,174.6953,742.5952,170.6953" style="stroke:#181818;stroke-width:1;"/><line style="stroke:#181818;stroke-width:1;stroke-dasharray:2.0,2.0;" x1="622.7646" x2="744.5952" y1="170.6953" y2="170.6953"/><text fill="#000000" font-family="sans-serif" font-size="13" lengthAdjust="spacing" textLength="108.8306" x="634.7646" y="165.6294">Existed behaivor</text></g><g class="message" data-participant-1="K8s" data-participant-2="REST"><polygon fill="#181818" points="313.5215,195.8281,303.5215,199.8281,313.5215,203.8281,309.5215,199.8281" style="stroke:#181818;stroke-width:1;"/><line style="stroke:#181818;stroke-width:1;stroke-dasharray:2.0,2.0;" x1="307.5215" x2="616.7646" y1="199.8281" y2="199.8281"/><text fill="#000000" font-family="sans-serif" font-size="13" lengthAdjust="spacing" textLength="83.0464" x="319.5215" y="194.7622">Event/Status</text></g><g class="message" data-participant-1="REST" data-participant-2="User"><polygon fill="#181818" points="34.9551,224.9609,24.9551,228.9609,34.9551,232.9609,30.9551,228.9609" style="stroke:#181818;stroke-width:1;"/><line style="stroke:#181818;stroke-width:1;stroke-dasharray:2.0,2.0;" x1="28.9551" x2="301.5215" y1="228.9609" y2="228.9609"/><text fill="#000000" font-family="sans-serif" font-size="13" lengthAdjust="spacing" textLength="182.7109" x="40.9551" y="223.895">Response (200 OK / Details)</text></g><!--SRC=[LOxBQiCm44Nt_efBLlR2E7HLJ2cKn8lM40Uh_O2nCgHg_K8Qctv-HwOfP2df79rBLYQFZy0-cScBiswcKR1hA_CEitI34nZsA_iTA21UtuFrqh4VMJZWvVowGVLZk6UCdhxHpEn9QnjpEoH9R2D_thukSMwqMuGeq3ptpfAuQGn83-qnUc-cEMN9jauTBPKuU2RX4msickNBOGao3KttnLQGNgVSzev7oHAbyPIhTekNg7vS4BwWuqzogyw9JFw_fbfLB8oGBE4lgcznSObMSxgCaJxizsXg53YoaEj3zWi0]--></g></svg>